<svg width="32" height="32" viewBox="0 0 32 32" fill="none" xmlns="http://www.w3.org/2000/svg">
<path fill-rule="evenodd" clip-rule="evenodd" d="M7.86995 26.2548C9.04827 26.2548 10.0301 25.2744 10.0301 24.0979C10.0301 22.9213 9.04827 21.9409 7.86995 21.9409C6.69163 21.9409 5.70976 22.9213 5.70976 24.0979C5.71004 25.3138 6.65243 26.2548 7.86995 26.2548ZM3 24.1373V5.15693C3 3.98039 3.98187 3 5.16019 3H10.5802C11.7585 3 12.7404 3.98039 12.7404 5.15693V24.0981V24.1373C12.7404 26.8038 10.5411 29 7.87023 29C5.1994 29 3.00007 26.8038 3.00007 24.1373L3 24.1373ZM29 21.3922V26.8041C29 27.9807 28.0181 28.9611 26.8397 28.9611L13.29 28.9608L23.0301 19.2353H26.8397C28.0575 19.2353 29 20.2157 29 21.3922ZM21.1057 7.03936L24.9546 10.8824C25.8187 11.7452 25.8187 13.1179 24.9546 13.9412L14.9002 23.9412V10.1765L18.0423 7.03922C18.9063 6.21555 20.2808 6.21555 21.1057 7.03922V7.03936Z" fill="#222828" fill-opacity="0.15"/>
</svg>
