<svg width="44" height="44" viewBox="0 0 44 44" fill="none" xmlns="http://www.w3.org/2000/svg">
<path fill-rule="evenodd" clip-rule="evenodd" d="M28.6863 21H17.6863C16.4963 21.07 21.6363 16.88 21.5363 16.72C21.7233 16.5291 21.8268 16.2716 21.824 16.0044C21.8212 15.7372 21.7123 15.482 21.5213 15.295C21.3304 15.108 21.073 15.0046 20.8057 15.0074C20.5385 15.0102 20.2833 15.1191 20.0963 15.31C11.9263 23.38 11.8763 20.64 20.0963 28.69C20.2833 28.881 20.5385 28.9898 20.8057 28.9926C21.073 28.9954 21.3304 28.892 21.5213 28.705C21.7123 28.518 21.8212 28.2629 21.824 27.9956C21.8268 27.7284 21.7233 27.471 21.5363 27.28C21.6163 27.09 16.5363 22.95 17.6863 23H28.6863C28.9516 23 29.2059 22.8947 29.3934 22.7071C29.581 22.5196 29.6863 22.2652 29.6863 22C29.6863 21.7348 29.581 21.4804 29.3934 21.2929C29.2059 21.1054 28.9516 21 28.6863 21Z" fill="black"/>
<path fill-rule="evenodd" clip-rule="evenodd" d="M21.6863 0C-7.23375 0.49 -7.22375 43.51 21.6863 44C50.6063 43.51 50.5963 0.49 21.6863 0ZM21.6863 43C-5.91375 42.53 -5.91375 1.47 21.6863 1C49.2863 1.47 49.2863 42.53 21.6863 43Z" fill="black"/>
</svg>
