<?xml version="1.0" encoding="utf-8"?>
<!-- Generator: Adobe Illustrator 26.2.1, SVG Export Plug-In . SVG Version: 6.00 Build 0)  -->
<svg version="1.1" id="Layer_1" xmlns="http://www.w3.org/2000/svg" xmlns:xlink="http://www.w3.org/1999/xlink" x="0px" y="0px"
	 viewBox="0 0 64 64" style="enable-background:new 0 0 64 64;" xml:space="preserve">
<style type="text/css">
	.st0{fill-rule:evenodd;clip-rule:evenodd;fill:#FA7D78;}
</style>
<path class="st0" d="M54.6,9.4C48.6,3.4,40.5,0,32,0S15.4,3.4,9.4,9.4C3.4,15.4,0,23.5,0,32s3.4,16.6,9.4,22.6
	c6,6,14.1,9.4,22.6,9.4s16.6-3.4,22.6-9.4c6-6,9.4-14.1,9.4-22.6C64,23.5,60.6,15.4,54.6,9.4z M51.4,51.4c-5.1,5.1-12.1,8-19.4,8
	c-7.3,0-14.3-2.9-19.4-8c-5.1-5.1-8-12.1-8-19.4c0-7.3,2.9-14.3,8-19.4c5.1-5.1,12.1-8,19.4-8c7.3,0,14.3,2.9,19.4,8
	c5.1,5.1,8,12.1,8,19.4C59.4,39.3,56.5,46.3,51.4,51.4z"/>
<path class="st0" d="M46.9,19.4c-0.6,0-1.2,0.2-1.6,0.7L26.5,38.9l-7.5-9.4c-0.4-0.5-0.9-0.9-1.5-1c-0.6-0.1-1.3,0.1-1.8,0.5
	c-0.5,0.4-0.8,1-0.9,1.6c0,0.6,0.2,1.3,0.6,1.7l9.1,11.4c0.4,0.5,1,0.8,1.6,0.9h0.1c0.6,0,1.2-0.2,1.6-0.7l20.6-20.6
	c0.4-0.4,0.7-1,0.7-1.6c0-0.6-0.2-1.2-0.7-1.6C48.1,19.7,47.5,19.4,46.9,19.4z"/>
</svg>
