<svg width="24" height="24" viewBox="0 0 24 24" fill="none" xmlns="http://www.w3.org/2000/svg">
<path fill-rule="evenodd" clip-rule="evenodd" d="M21.5775 2.42714C21.3042 2.15382 20.9335 2 20.5469 2C20.1603 2 19.7901 2.15382 19.5168 2.42714L12.0021 9.94188L4.48735 2.42714C3.91847 1.85827 2.99553 1.85827 2.42666 2.42714C1.85778 2.99602 1.85778 3.91896 2.42666 4.48783L9.94139 12.0026L2.42666 19.5173C2.01174 19.9343 1.88886 20.5605 2.11537 21.1035C2.34136 21.647 2.87213 22.0005 3.4609 22.0001C3.8454 22.0005 4.21468 21.8486 4.48735 21.5779L12.0021 14.0631L19.5168 21.5779C19.7896 21.8486 20.1589 22.0005 20.5434 22.0001C21.132 22.0005 21.6628 21.647 21.8889 21.1035C22.1154 20.5605 21.9926 19.9343 21.5775 19.5173L14.0628 12.0026L21.5775 4.48783C21.8508 4.21451 22.0046 3.84432 22.0046 3.45775C22.0046 3.07117 21.8508 2.70046 21.5775 2.42714Z" fill="#222828"/>
</svg>
