<?xml version="1.0" encoding="utf-8"?>
<!-- Generator: Adobe Illustrator 26.2.1, SVG Export Plug-In . SVG Version: 6.00 Build 0)  -->
<svg version="1.1" id="Layer_1" xmlns="http://www.w3.org/2000/svg" xmlns:xlink="http://www.w3.org/1999/xlink" x="0px" y="0px"
	 viewBox="0 0 24 24" style="enable-background:new 0 0 24 24;" xml:space="preserve">
	<path d="M22,6.5c-0.2-5.4-6.7-5.8-9.3-1.7
		c-1.5-2.1-4,0.4-1.9,1.9c-0.5,0.6-7.5,7.1-7.4,7.8c-0.5,2-2.9,6.1,0.1,7.3c1.3,0.8,4.6-1,5.9-1.2c0.7,0.1,7.2-6.9,7.8-7.4
		c1.5,2.1,4-0.4,1.9-1.9C20.4,10,22.1,8.5,22,6.5z M8.6,17.9l-4,1.3l1.3-4l6.7-6.7l2.7,2.7L8.6,17.9z M19.3,6.8
		c-0.1,0.4-0.3,0.7-0.5,1l-1.5,1.5l-2.7-2.7c0.7-0.6,1.8-2.2,2.8-2.1c0.4,0,0.7,0.1,1.1,0.3c0.3,0.2,0.6,0.5,0.7,0.9
		S19.4,6.5,19.3,6.8z"/>
</svg>
