<svg width="32" height="32" viewBox="0 0 32 32" fill="none" xmlns="http://www.w3.org/2000/svg">
<path fill-rule="evenodd" clip-rule="evenodd" d="M4.84898 4H27.151C29.8189 4 32 6.18455 32 8.84898V23.8822C32 26.5466 29.8189 28.7312 27.151 28.7312H4.84898C2.18111 28.7312 0 26.5466 0 23.8822V8.84898C0 6.18455 2.18111 4 4.84898 4ZM22.8601 7.55913C24.2315 7.55913 25.3416 8.66927 25.3416 10.0407C25.3416 11.4121 24.2315 12.5257 22.8601 12.5257C21.4886 12.5257 20.3751 11.4121 20.3751 10.0407C20.3751 8.66927 21.4887 7.55913 22.8601 7.55913ZM12.5644 11.8857L6.86647 21.1364V21.1362C5.78915 22.8832 6.90251 24.8391 8.82577 24.8391H23.8625C25.2143 24.8391 26.0208 23.3176 25.2567 22.0767L21.211 15.507C20.8714 15.1152 20.104 15.1152 19.7644 15.507L18.2983 17.8874L14.5986 11.8857C14.1219 11.3372 13.0411 11.3372 12.5644 11.8857Z" fill="#222828" fill-opacity="0.15"/>
</svg>
