<svg width="24" height="24" viewBox="0 0 24 24" fill="none" xmlns="http://www.w3.org/2000/svg">
<path fill-rule="evenodd" clip-rule="evenodd" d="M20.0001 19.032V18.667C20.0001 17.6061 19.5787 16.5887 18.8285 15.8384C18.0784 15.0884 17.061 14.667 16.0001 14.667H7.99998C6.93905 14.667 5.92161 15.0884 5.1716 15.8384C4.42137 16.5887 3.99993 17.6061 3.99993 18.667V19.032C2.1798 16.9681 1.22756 14.2806 1.34253 11.5313C1.4575 8.78176 2.63049 6.18304 4.61668 4.27811C6.60265 2.37317 9.24823 1.30979 12.0002 1.30979C14.7522 1.30979 17.3976 2.37317 19.3837 4.27811C21.3699 6.18282 22.5429 8.78153 22.6579 11.5313C22.7728 14.2807 21.8206 16.9683 20.0005 19.032H20.0001ZM5.33309 18.9128V18.667C5.33309 17.9596 5.61412 17.2815 6.11413 16.7813C6.61436 16.2813 7.29272 16.0002 7.99987 16.0002H16C16.7071 16.0002 17.3855 16.2813 17.8857 16.7813C18.3857 17.2815 18.6667 17.9596 18.6667 18.667V18.913V18.9128C18.6763 19.8394 18.198 20.7028 17.4076 21.186C15.7703 22.1555 13.9026 22.6671 11.9999 22.6671C10.0972 22.6671 8.22935 22.1555 6.59225 21.186C5.80184 20.7028 5.32349 19.8394 5.33309 18.9128ZM12 0C8.81742 0 5.7651 1.2643 3.51478 3.51478C1.2643 5.76527 0 8.81753 0 12C0 15.1825 1.2643 18.235 3.51478 20.4853C5.76527 22.7357 8.81753 24 12 24C15.1825 24 18.235 22.7357 20.4853 20.4853C22.7358 18.2348 24.0001 15.1825 24.0001 12C24.0001 8.81753 22.7358 5.7651 20.4853 3.51478C18.2348 1.2643 15.1825 0 12 0ZM12 12.0001C11.1158 12.0001 10.2681 11.649 9.64309 11.0238C9.01788 10.3988 8.66673 9.5508 8.66673 8.66685C8.66673 7.78266 9.01788 6.93488 9.64309 6.30968C10.2681 5.68464 11.1158 5.33332 12 5.33332C12.8842 5.33332 13.732 5.68464 14.357 6.30968C14.9822 6.93488 15.3333 7.78266 15.3333 8.66685C15.3324 9.55057 14.9809 10.3979 14.3559 11.0227C13.7311 11.6477 12.8838 11.9991 12 12.0001ZM12 4.00005C10.7623 4.00005 9.57543 4.49177 8.70022 5.36681C7.82501 6.24202 7.33323 7.42912 7.33323 8.66685C7.33323 9.90435 7.82501 11.0914 8.70022 11.9667C9.57543 12.8419 10.7623 13.3334 12 13.3334C13.2378 13.3334 14.4246 12.8419 15.2998 11.9667C16.175 11.0914 16.6668 9.90435 16.6668 8.66685C16.6668 7.42912 16.175 6.24202 15.2998 5.36681C14.4246 4.49183 13.2378 4.00005 12 4.00005Z" fill="#222828"/>
</svg>
