<svg width="16" height="16" viewBox="0 0 16 16" fill="none" xmlns="http://www.w3.org/2000/svg">
<path fill-rule="evenodd" clip-rule="evenodd" d="M8.55606 1.22962L11.7755 4.30689L11.7756 4.30688C12.0726 4.5908 12.0726 5.05424 11.7886 5.34235C11.4872 5.62626 11.0023 5.62626 10.7053 5.34235L8.7701 3.49264V10.2693C8.7701 10.4739 8.6871 10.6534 8.5473 10.787C8.40751 10.9165 8.2153 11 8.00565 11C7.58626 11 7.24119 10.6702 7.24119 10.2693L7.24131 3.49263L5.30613 5.34233C5.00471 5.62625 4.51984 5.62625 4.22281 5.34233C4.07423 5.20046 4 5.01253 4 4.82461C4 4.63672 4.07423 4.44891 4.22281 4.30689L7.44229 1.22962L7.45972 1.21297C7.57757 1.10019 7.72615 1.02924 7.88338 1.00839C7.88997 1.00839 7.89652 1.00734 7.90307 1.00629C7.90962 1.00524 7.91617 1.00419 7.92275 1.00419L7.99698 1C8.02318 1 8.04939 1 8.0756 1.00419C8.08218 1.00419 8.08873 1.00524 8.09528 1.00629C8.10183 1.00734 8.10838 1.00839 8.11496 1.00839C8.2678 1.02924 8.42065 1.10019 8.53863 1.21297C8.53991 1.21419 8.5416 1.21543 8.54346 1.21678C8.54778 1.21994 8.55299 1.22376 8.55606 1.22962ZM15.9999 15.211V11.7447L16 11.7447C16 11.5426 15.9144 11.3552 15.7834 11.217C15.6473 11.0838 15.4559 11 15.2494 11C14.8363 11 14.4937 11.3303 14.4937 11.7396V14.5156H1.51134V11.7396C1.51134 11.5375 1.42573 11.3501 1.28967 11.217C1.15362 11.0838 0.962156 11 0.755668 11C0.342552 11 0 11.3303 0 11.7396V15.2059C0 15.2553 0 15.2946 0.0101206 15.3391C0.0504588 15.7089 0.372769 15.9999 0.760715 15.9999L15.2343 16C15.5969 16 15.9042 15.7436 15.9748 15.4034C15.9898 15.3442 15.9999 15.2801 15.9999 15.211Z" fill="#FA7D78"/>
</svg>
