<svg width="16" height="16" viewBox="0 0 16 16" fill="none" xmlns="http://www.w3.org/2000/svg">
<path fill-rule="evenodd" clip-rule="evenodd" d="M9.57663 7.47501C9.95742 7.47501 10.2653 7.16653 10.2653 6.7863C10.2653 6.40617 9.95754 6.0976 9.57663 6.0976H4.15333C3.77253 6.0976 3.46462 6.40608 3.46462 6.7863C3.46462 7.16644 3.77242 7.47501 4.15333 7.47501H9.57663ZM6.86531 1.37769C9.89011 1.37769 12.3521 3.8396 12.3535 6.86562C12.3535 9.891 9.89082 12.3521 6.86416 12.3521C3.83879 12.3521 1.37883 9.8922 1.3774 6.86819C1.3774 3.84137 3.84007 1.37827 6.86559 1.37741L6.86531 1.37769ZM6.86531 0.000371423C3.08023 0.00102856 0.00114284 3.08204 0 6.86827C0 10.6519 3.08052 13.7307 6.86416 13.7307C8.44125 13.7307 9.89211 13.1911 11.0527 12.2943L14.558 15.7982C14.6923 15.9325 14.8686 16 15.045 16C15.2213 16 15.3975 15.9325 15.5319 15.7982C15.8012 15.5289 15.8012 15.093 15.5319 14.8244L12.0534 11.3473C13.0952 10.1434 13.7308 8.57979 13.7308 6.86676C13.7308 3.0811 10.6492 0 6.86551 0L6.86531 0.000371423Z" fill="#222828"/>
</svg>
