<svg width="24" height="24" viewBox="0 0 24 24" fill="none" xmlns="http://www.w3.org/2000/svg">
<path d="M6.15185 21.06C5.88663 21.06 5.63228 20.9546 5.44474 20.7671C5.2572 20.5796 5.15185 20.3252 5.15185 20.06L5.00185 5.4C4.98981 5.10234 5.03673 4.80525 5.13992 4.52579C5.24311 4.24633 5.40053 3.99004 5.60313 3.77164C5.80573 3.55324 6.04951 3.37705 6.32044 3.25321C6.59138 3.12936 6.88413 3.0603 7.18185 3.05L16.7718 3C17.07 3.00521 17.3641 3.06909 17.6375 3.18801C17.911 3.30692 18.1583 3.47854 18.3654 3.69305C18.5725 3.90756 18.7352 4.16077 18.8445 4.43821C18.9537 4.71565 19.0071 5.01189 19.0018 5.31L19.1418 19.97C19.1436 20.1452 19.0992 20.3178 19.0132 20.4705C18.9272 20.6232 18.8026 20.7506 18.6518 20.84C18.4998 20.9278 18.3274 20.974 18.1518 20.974C17.9763 20.974 17.8039 20.9278 17.6518 20.84L11.9518 17.68L6.66185 20.91C6.5052 20.9975 6.33092 21.0488 6.15185 21.06ZM11.9118 15.51C12.0856 15.5103 12.2569 15.5514 12.4118 15.63L17.1218 18.24L17.0018 5.29C17.0018 5.09 16.8718 4.95 16.7918 4.96L7.19185 5.05C7.11185 5.05 7.00185 5.18 7.00185 5.38L7.12185 18.28L11.4018 15.65C11.5573 15.561 11.7327 15.5128 11.9118 15.51Z" fill="#FA7C78"/>
</svg>
