<svg width="24" height="24" viewBox="0 0 24 24" fill="none" xmlns="http://www.w3.org/2000/svg">
<path fill-rule="evenodd" clip-rule="evenodd" d="M10.8195 20.1991C10.6249 20.3925 10.3617 20.5006 10.0875 20.4999C9.81211 20.4994 9.54845 20.389 9.3547 20.1933C9.16077 19.9977 9.05301 19.7329 9.0551 19.4575V19.4575C9.05702 19.1833 9.16774 18.921 9.36287 18.7285C9.558 18.5358 9.82148 18.4284 10.0958 18.43C10.37 18.4315 10.6324 18.5419 10.8253 18.7367C11.0183 18.9315 11.1261 19.195 11.125 19.4691C11.1238 19.7434 11.0139 20.0058 10.8195 20.1991ZM10.0826 16.9301C9.41064 16.9313 8.76685 17.1993 8.29234 17.6751C7.81801 18.1509 7.5519 18.7957 7.55261 19.4675C7.55315 20.1393 7.82065 20.7835 8.29582 21.2583C8.77118 21.7332 9.41555 22 10.0875 22C10.7609 21.9993 11.4065 21.7311 11.8819 21.2541C12.3574 20.7771 12.6239 20.1309 12.6225 19.4575C12.6206 18.7855 12.3518 18.1421 11.8756 17.6681C11.3994 17.1941 10.7545 16.9287 10.0826 16.9301Z" fill="#222828"/>
<mask id="mask0_0_64" style="mask-type:alpha" maskUnits="userSpaceOnUse" x="15" y="16" width="6" height="6">
<path fill-rule="evenodd" clip-rule="evenodd" d="M15.1448 16.9301H20.2148V22H15.1448V16.9301Z" fill="white"/>
</mask>
<g mask="url(#mask0_0_64)">
<path fill-rule="evenodd" clip-rule="evenodd" d="M18.4191 20.1917C18.2271 20.3865 17.9659 20.4973 17.6923 20.4999C17.4148 20.5027 17.1478 20.3937 16.9513 20.1977C16.7547 20.0017 16.6452 19.7351 16.6473 19.4574V19.4575C16.6493 19.184 16.7595 18.9224 16.9538 18.7299C17.148 18.5374 17.4104 18.4296 17.684 18.43C17.9575 18.4305 18.2196 18.5391 18.4133 18.7324C18.6069 18.9254 18.7162 19.1873 18.7173 19.4609C18.7183 19.7343 18.6113 19.9972 18.4191 20.1917ZM17.6706 16.9301C16.998 16.9325 16.354 17.2021 15.8802 17.6796C15.4066 18.1571 15.1421 18.8033 15.1448 19.4759C15.1478 20.1485 15.4177 20.7923 15.8956 21.2658C16.3733 21.7391 17.0196 22.0033 17.6922 22C18.3636 21.996 19.0059 21.7262 19.4786 21.2497C19.9514 20.7731 20.2161 20.1288 20.2147 19.4575H20.2148C20.2128 18.7848 19.9436 18.1407 19.4664 17.6667C18.9893 17.1925 18.3433 16.9277 17.6706 16.9301Z" fill="#222828"/>
</g>
<mask id="mask1_0_64" style="mask-type:alpha" maskUnits="userSpaceOnUse" x="2" y="2" width="20" height="15">
<path fill-rule="evenodd" clip-rule="evenodd" d="M2 2H21.3862V16.0325H2V2Z" fill="white"/>
</mask>
<g mask="url(#mask1_0_64)">
<path fill-rule="evenodd" clip-rule="evenodd" d="M18.5075 14.5449H8.78745L7.46492 7.5699H19.7425L18.5075 14.5449ZM21.207 6.33844C21.0619 6.16826 20.8484 6.07161 20.6249 6.07509H7.17724L6.52247 2.61994C6.49193 2.44695 6.4018 2.28998 6.26734 2.17664C6.13305 2.06347 5.96319 2.00088 5.78743 1.99998H2.74999C2.48214 1.99998 2.23451 2.14297 2.10058 2.37494C1.96647 2.60703 1.96647 2.89301 2.10058 3.12493C2.23451 3.35707 2.48214 3.50006 2.74999 3.50006H5.16748L5.81497 6.91C5.81917 6.93946 5.82493 6.96875 5.83243 6.99754L7.43242 15.4225C7.46501 15.5941 7.55657 15.7491 7.69135 15.8604C7.82599 15.9718 7.99532 16.0327 8.17005 16.0325H19.1374C19.1852 16.032 19.233 16.0271 19.2799 16.0175H19.3249L19.4124 15.9899L19.4625 15.965L19.535 15.9275L19.5824 15.8951L19.6449 15.8426L19.6848 15.8027V15.8025C19.7035 15.7819 19.7211 15.7601 19.7373 15.7374L19.7697 15.6924H19.7699C19.7845 15.6682 19.798 15.6432 19.8098 15.6174C19.8098 15.6 19.8272 15.585 19.8347 15.5674C19.8447 15.5406 19.8531 15.513 19.8599 15.4849C19.8599 15.4675 19.8599 15.4499 19.8749 15.43L21.3749 6.95504H21.3748C21.4137 6.73477 21.3521 6.50862 21.207 6.33844Z" fill="black"/>
</g>
</svg>
