<?xml version="1.0" encoding="utf-8"?>
<!-- Generator: Adobe Illustrator 26.2.1, SVG Export Plug-In . SVG Version: 6.00 Build 0)  -->
<svg version="1.1" id="Layer_1" xmlns="http://www.w3.org/2000/svg" xmlns:xlink="http://www.w3.org/1999/xlink" x="0px" y="0px"
	 viewBox="0 0 32 32" style="enable-background:new 0 0 32 32;" xml:space="preserve">
<style type="text/css">
	.st0{fill-rule:evenodd;clip-rule:evenodd;fill:#FA7D78;}
</style>
<path class="st0" d="M25.9,6.1C23.3,3.5,19.7,2,16,2S8.7,3.5,6.1,6.1C3.5,8.7,2,12.3,2,16s1.5,7.3,4.1,9.9C8.7,28.5,12.3,30,16,30
	c1.6,0,2.3-0.8,2.3-1.8c0-0.8-0.3-1.4-0.6-2.1l0,0c-0.3-0.6-0.6-1.2-0.6-2c0-1.6,1.3-1.8,2.3-1.8h2.9c4.1,0,7.6-2.6,7.6-6.4
	C30,12.3,28.5,8.7,25.9,6.1z M8.1,17.8c-0.7,0-1.4-0.3-1.9-0.8c-0.5-0.5-0.8-1.2-0.8-1.9c0-0.7,0.3-1.4,0.8-1.9
	c0.5-0.5,1.2-0.8,1.9-0.8c0.7,0,1.4,0.3,1.9,0.8c0.5,0.5,0.8,1.2,0.8,1.9c0,0.7-0.3,1.4-0.8,1.9C9.5,17.5,8.8,17.8,8.1,17.8z
	 M13.7,26c-0.3,0.3-0.8,0.5-1.2,0.5c-0.5,0-0.9-0.2-1.2-0.5s-0.5-0.8-0.5-1.2c0-0.5,0.2-0.9,0.5-1.2S12,23,12.5,23
	c0.5,0,0.9,0.2,1.2,0.5s0.5,0.8,0.5,1.2C14.2,25.2,14.1,25.7,13.7,26z M13.5,10c-0.5,0.5-1.2,0.8-1.9,0.8c-0.3,0-0.7-0.1-1-0.2
	c-0.3-0.1-0.6-0.3-0.9-0.6C9.5,9.7,9.3,9.4,9.2,9.1C9.1,8.8,9,8.5,9,8.1c0-0.3,0.1-0.7,0.2-1c0.1-0.3,0.3-0.6,0.6-0.9
	C10,6,10.3,5.8,10.6,5.7c0.3-0.1,0.7-0.2,1-0.2c0.7,0,1.4,0.3,1.9,0.8c0.5,0.5,0.8,1.2,0.8,1.9C14.2,8.8,14,9.5,13.5,10z M18.5,10
	c-0.5-0.5-0.8-1.2-0.8-1.9c0-0.7,0.3-1.4,0.8-1.9c0.5-0.5,1.2-0.8,1.9-0.8c0.3,0,0.7,0.1,1,0.2C21.7,5.8,22,6,22.2,6.3
	c0.2,0.2,0.4,0.5,0.6,0.9c0.1,0.3,0.2,0.7,0.2,1c0,0.3-0.1,0.7-0.2,1c-0.1,0.3-0.3,0.6-0.6,0.9c-0.2,0.2-0.5,0.4-0.9,0.6
	c-0.3,0.1-0.7,0.2-1,0.2C19.7,10.7,19,10.5,18.5,10z M25.7,17c-0.5,0.5-1.2,0.8-1.9,0.8c-0.7,0-1.4-0.3-1.9-0.8
	c-0.5-0.5-0.8-1.2-0.8-1.9c0-0.7,0.3-1.4,0.8-1.9c0.5-0.5,1.2-0.8,1.9-0.8c0.7,0,1.4,0.3,1.9,0.8c0.5,0.5,0.8,1.2,0.8,1.9
	C26.5,15.8,26.2,16.5,25.7,17z"/>
</svg>
