<?xml version="1.0" encoding="utf-8"?>
<!-- Generator: Adobe Illustrator 26.2.1, SVG Export Plug-In . SVG Version: 6.00 Build 0)  -->
<svg version="1.1" id="Layer_1" xmlns="http://www.w3.org/2000/svg" xmlns:xlink="http://www.w3.org/1999/xlink" x="0px" y="0px"
	 viewBox="0 0 32 32" style="enable-background:new 0 0 32 32;" xml:space="preserve">
<style type="text/css">
	.st0{fill-rule:evenodd;clip-rule:evenodd;fill:#222828;fill-opacity:0.3;}
</style>
<path class="st0" d="M31.2,1.5c-0.6-0.6-1.6-0.6-2.3,0l-3.6,3.6c-3.7-3-8.7-3.9-13.2-2.5C7.6,4,4,7.5,2.6,12.1
	c-1.4,4.5-0.4,9.5,2.5,13.2l-3.7,3.7c-0.6,0.6-0.6,1.6,0,2.3c0.6,0.6,1.6,0.6,2.3,0l3.7-3.7c3.7,2.9,8.6,3.8,13.2,2.4
	c4.5-1.4,8.1-4.9,9.5-9.5c1.4-4.5,0.5-9.4-2.4-13.1l3.7-3.7C31.8,3.1,31.8,2.1,31.2,1.5z M5.2,16.3c0-2.8,1-5.4,2.9-7.5
	c1.9-2.1,4.4-3.3,7.2-3.6C18,5,20.8,5.8,23,7.4L7.4,23C6,21.1,5.2,18.7,5.2,16.3z M27.4,17.4c-0.3,2.8-1.5,5.3-3.6,7.2
	c-2.1,1.9-4.7,2.9-7.5,2.9c-2.4,0-4.8-0.8-6.7-2.2L25.3,9.7C26.9,11.9,27.7,14.7,27.4,17.4z"/>
</svg>
