<svg width="16" height="16" viewBox="0 0 16 16" fill="none" xmlns="http://www.w3.org/2000/svg">
<path fill-rule="evenodd" clip-rule="evenodd" d="M2.84995 2H5.33576C5.63946 2 5.92007 2.16534 6.07195 2.43388C6.22364 2.70228 6.22364 3.03277 6.07195 3.30097C5.92017 3.56954 5.63951 3.73485 5.33576 3.73485L3.69952 3.73446L3.70002 5.40423C3.70002 5.59598 3.63784 5.78114 3.52487 5.93167L3.45109 6.01761C3.29169 6.18028 3.07553 6.27166 2.85054 6.27166C2.62488 6.2719 2.40853 6.18051 2.24921 6.01792C2.08961 5.85524 2 5.63456 2 5.40434V2.86742C2 2.63728 2.08963 2.41661 2.24882 2.25434C2.40821 2.09148 2.62444 2 2.84995 2ZM10.4225 2.00011H12.9083C13.1338 2.00011 13.35 2.09159 13.509 2.25405C13.6686 2.41672 13.7583 2.63739 13.7583 2.86754V5.40446C13.7583 5.63467 13.6686 5.85535 13.5092 6.01784C13.3499 6.18049 13.1337 6.27188 12.9078 6.27188C12.6825 6.27164 12.4665 6.18031 12.3072 6.01772C12.1478 5.85505 12.0582 5.63445 12.0582 5.40434L12.0578 3.73446L10.4225 3.73497C10.1567 3.73497 9.90862 3.6084 9.74911 3.39692L9.68638 3.30121C9.53462 3.03288 9.53462 2.7024 9.68638 2.43387C9.83818 2.16546 10.1188 2.00011 10.4225 2.00011ZM2.42514 9.84422C2.16201 9.99922 2 10.2856 2 10.5955V13.1325C2 13.3626 2.08963 13.5833 2.24921 13.7459C2.40822 13.9084 2.62444 13.9999 2.84995 13.9999L5.33567 13.9998C5.63935 13.9998 5.91996 13.8344 6.07177 13.566C6.22353 13.2975 6.22353 12.967 6.07177 12.6987L6.00904 12.603C5.84953 12.3915 5.60144 12.2649 5.33565 12.2649L3.69952 12.2646L3.6999 10.5955C3.6999 10.2855 3.53792 9.99912 3.27489 9.84429C3.01196 9.68941 2.68813 9.68941 2.42514 9.84422ZM12.0581 10.5957C12.0581 10.3244 12.1821 10.0712 12.3894 9.90842L12.4831 9.8444C12.7461 9.68953 13.0699 9.68953 13.3329 9.84433C13.596 9.99933 13.758 10.2857 13.758 10.5957L13.7574 13.076L14 13.0768L13.7293 13.352C13.7001 13.4669 13.6506 13.5697 13.5829 13.6599L13.5092 13.7457C13.3498 13.9085 13.1336 14 12.9081 14L10.4224 13.9999C10.1566 13.9999 9.90858 13.8733 9.74897 13.6617L9.68619 13.566C9.5345 13.2976 9.5345 12.9671 9.68619 12.6989C9.83798 12.4303 10.1186 12.265 10.4224 12.265L12.0578 12.2646L12.0581 10.5957Z" fill="#FA7D78"/>
</svg>
