<svg width="32" height="32" viewBox="0 0 32 32" fill="none" xmlns="http://www.w3.org/2000/svg">
<path fill-rule="evenodd" clip-rule="evenodd" d="M8.76814 11.086C8.02638 11.7349 7.65564 12.6621 7.65564 13.682L7.65558 13.682C7.65558 14.7019 8.02632 15.6291 8.58272 16.4636L8.95345 16.8344L8.58272 17.2051C7.84095 17.8541 7.47021 18.7812 7.47021 19.8012C7.47021 20.4501 7.65558 21.0062 7.93378 21.5626L7.47021 22.0262C6.72844 22.7679 5.61594 22.7679 4.87417 22.0262L2.55633 19.5229C1.81456 18.7812 1.81456 17.6687 2.55633 16.9269L3.57629 15.9069C3.94703 15.5362 3.94703 14.9798 3.57629 14.6091L2.55633 13.4965C1.81456 12.7548 1.81456 11.6423 2.55633 10.9006L3.57629 9.78799C3.94703 9.41725 3.94703 8.86091 3.57629 8.49012L2.55633 7.47015C1.81456 6.72844 1.81456 5.61588 2.55633 4.87417L4.96677 2.55633C5.70853 1.81456 6.82104 1.81456 7.56281 2.55633L8.67531 3.57629C9.04605 3.94703 9.60239 3.94703 9.97319 3.57629L10.9932 2.55633C11.7349 1.81456 12.8474 1.81456 13.5892 2.55633L14.7017 3.57629C15.0724 3.94703 15.6288 3.94703 15.9996 3.57629L17.0195 2.55633C17.7613 1.81456 18.8738 1.81456 19.6155 2.55633L22.0263 4.96677C22.768 5.70848 22.768 6.82104 22.0263 7.56275L21.3771 8.11915C20.821 7.84095 20.2646 7.65558 19.6156 7.65558C18.6884 7.65558 17.7613 8.02632 17.0196 8.76809L16.6488 9.13888L16.2781 8.76809C15.6291 8.02632 14.6092 7.65558 13.682 7.65558C12.7549 7.65558 11.8278 8.02638 11.1788 8.67531L8.76814 11.086ZM29.4434 18.5031C30.1851 19.2449 30.1851 20.3573 29.4434 21.0992L28.2386 22.1191C27.8679 22.4899 27.8679 23.0463 28.2386 23.417L29.2586 24.437C30.0003 25.1787 30.0003 26.2912 29.2586 27.0329L26.8479 29.4437C26.1061 30.1854 24.9936 30.1854 24.2519 29.4437L23.2319 28.4237C22.8611 28.0529 22.3048 28.0529 21.934 28.4237L20.914 29.4437C20.1723 30.1854 19.0598 30.1854 18.318 29.4437L17.298 28.4237C16.9273 28.0529 16.3709 28.0529 16.0002 28.4237L14.9802 29.4437C14.2384 30.1854 13.1259 30.1854 12.3842 29.4437L9.97348 27.0329C9.23171 26.2912 9.23171 25.1787 9.97348 24.437L10.9934 23.3244C11.3642 22.9537 11.3642 22.3973 10.9934 22.0266L9.97348 21.0066C9.23171 20.2648 9.23171 19.1523 9.97348 18.4106L10.9934 17.2981C11.3642 16.9273 11.3642 16.3709 10.9934 16.0002L9.97348 14.9802C9.23171 14.2385 9.23171 13.1259 9.97348 12.3842L12.4767 9.97351C13.2185 9.23174 14.331 9.23174 15.0727 9.97351L16.0927 11.086C16.4634 11.4568 17.0198 11.4568 17.3906 11.086L18.5031 9.97351C19.2449 9.23174 20.3574 9.23174 21.0991 9.97351L22.2116 10.9935C22.5824 11.3642 23.1387 11.3642 23.5095 10.9935L24.5295 9.97351C25.2712 9.23174 26.3837 9.23174 27.1255 9.97351L29.4434 12.4767C30.1851 13.2185 30.1851 14.331 29.4434 15.0728L28.4234 16.0927C28.0527 16.4635 28.0527 17.0198 28.4234 17.3906L29.4434 18.5031Z" fill="#222828" fill-opacity="0.15"/>
</svg>
