<svg width="32" height="32" viewBox="0 0 32 32" fill="none" xmlns="http://www.w3.org/2000/svg">
<path fill-rule="evenodd" clip-rule="evenodd" d="M10.7885 5.89211C11.5992 5.89211 12.2361 6.52837 12.2361 7.33816C12.2361 8.148 11.5992 8.78421 10.7885 8.78421C9.97779 8.78421 9.34082 8.148 9.34082 7.33816C9.34082 6.52837 10.0067 5.89211 10.7885 5.89211ZM4.44776 8.81313H6.70607C7.31419 10.4905 8.90647 11.6763 10.7885 11.6763C12.6704 11.6763 14.2629 10.4616 14.871 8.81313H27.5236C28.3343 8.81313 28.9712 8.17682 28.9712 7.36708C28.9712 6.55724 28.3343 5.92103 27.5236 5.92103H14.9C14.3209 4.21474 12.6996 3 10.8175 3C8.90652 3 7.28518 4.21474 6.70612 5.92103H4.44776C3.63707 5.92103 3.0001 6.55724 3.0001 7.36708C3.0001 8.17682 3.63707 8.81313 4.44776 8.81313ZM10.7885 26.1079C9.97779 26.1079 9.34082 25.4716 9.34082 24.6618C9.34082 23.852 9.97779 23.2158 10.7885 23.2158C11.5992 23.2158 12.2361 23.852 12.2361 24.6618C12.2361 25.4716 11.5992 26.1079 10.7885 26.1079ZM27.4944 23.2158H14.8999C14.2917 21.5384 12.6994 20.3237 10.8174 20.3237C8.93552 20.3237 7.31393 21.5384 6.73492 23.2158H4.44771C3.63702 23.2158 3.00005 23.852 3.00005 24.6618C3.00005 25.4716 3.63702 26.1079 4.44771 26.1079H6.70607C7.31419 27.7853 8.90647 29 10.7885 29C12.6704 29 14.292 27.7853 14.871 26.1079H27.4657C28.2764 26.1079 28.9133 25.4716 28.9133 24.6618C28.9132 23.852 28.305 23.2158 27.4944 23.2158ZM22.6593 16.0722C22.6593 15.2624 22.0224 14.6262 21.2117 14.6262C20.401 14.6262 19.764 15.2624 19.764 16.0722C19.764 16.882 20.401 17.5183 21.2117 17.5183C22.0224 17.5183 22.6593 16.882 22.6593 16.0722ZM17.1292 17.4894H4.44766C3.63697 17.4894 3 16.8531 3 16.0434C3 15.2336 3.63697 14.5973 4.44766 14.5973H17.1292C17.7373 12.9199 19.3298 11.7341 21.2117 11.7341C23.0937 11.7341 24.686 12.9199 25.2941 14.5973H27.4944C28.3051 14.5973 29 15.2336 29 16.0434C29 16.8531 28.363 17.4894 27.5523 17.4894H25.3519C24.744 19.1957 23.1224 20.4104 21.2406 20.4104C19.3296 20.4104 17.7082 19.1957 17.1292 17.4894Z" fill="#222828" fill-opacity="0.15"/>
</svg>
