<svg width="32" height="32" viewBox="0 0 32 32" fill="none" xmlns="http://www.w3.org/2000/svg">
<path fill-rule="evenodd" clip-rule="evenodd" d="M16.007 2C8.291 2 2 8.2795 2 15.996C2 23.7125 8.2905 30 16.007 30C23.723 30 30 23.712 30 15.996C30 8.28 23.723 2 16.007 2ZM16.007 4.8002C22.2095 4.8002 27.2 9.79315 27.2 15.9957C27.2 22.1982 22.2098 27.1997 16.007 27.1997C9.8045 27.1997 4.8035 22.1987 4.803 15.9957C4.803 9.7932 9.804 4.8002 16.007 4.8002ZM9.05015 13.2449C9.05015 10.9418 10.9527 9.05 13.256 9.05L18.8594 9.05032C21.1627 9.05032 23.0545 10.9419 23.0545 13.2452V14.071L23.4674 13.6581C23.7297 13.3972 24.0846 13.2509 24.4545 13.2509C24.8244 13.2509 25.1795 13.3972 25.4418 13.6581C25.7059 13.9208 25.8545 14.2781 25.8545 14.6507C25.8545 15.0234 25.7059 15.3806 25.4418 15.6435H25.4416L22.6414 18.4437C22.3791 18.7046 22.0242 18.8509 21.6543 18.8509C21.2844 18.8509 20.9295 18.7046 20.667 18.4437L17.8668 15.6435C17.6025 15.3806 17.4541 15.0234 17.4541 14.6507C17.4541 14.278 17.6025 13.9208 17.8668 13.6581C18.1184 13.4103 18.4545 13.2667 18.8074 13.2562C19.1927 13.2421 19.5666 13.3874 19.8412 13.6581L20.2541 14.0683V13.2452C20.2541 12.4554 19.6492 11.8505 18.8595 11.8505H13.256C12.4662 11.8505 11.8504 12.4554 11.8504 13.2452L11.8502 18.8482C11.8502 19.6381 12.466 20.2539 13.2558 20.2539H18.8593C19.2288 20.2554 19.5828 20.4027 19.8441 20.664C20.1052 20.9251 20.2527 21.2791 20.2541 21.6486C20.2556 22.0199 20.1093 22.3765 19.8478 22.6402C19.5863 22.9039 19.2308 23.0527 18.8593 23.0542H13.256C10.9527 23.0542 9.05015 21.1517 9.05015 18.8484V13.2449Z" fill="#222828" fill-opacity="0.15"/>
</svg>
