<svg width="32" height="32" viewBox="0 0 32 32" fill="none" xmlns="http://www.w3.org/2000/svg">
<path fill-rule="evenodd" clip-rule="evenodd" d="M3.74989 7.23062H2.00006V3.74994H2C1.9991 3.28289 2.18539 2.83488 2.51712 2.50597C2.84884 2.17735 3.29872 1.99502 3.76577 2.0001H7.24623L7.24646 3.74994H4.6232C4.39126 3.74909 4.16881 3.84091 4.00478 4.00488C3.84081 4.16885 3.74899 4.39136 3.74989 4.6233V7.23062ZM29.4941 2.51733C29.8269 2.85279 30.0092 3.30905 29.9998 3.78158H30V7.26227H28.2501V4.63907C28.2508 4.40735 28.1592 4.18461 27.9952 4.02064C27.8313 3.8569 27.6086 3.76508 27.3768 3.76593V3.7657H24.7536V2.01587H28.2343V2.00022C28.7068 1.99513 29.1615 2.18165 29.4941 2.51733ZM17.7416 3.75015H14.242V2.00031H17.7416V3.75015ZM2.00007 12.5115H3.7499V8.99615H2.00007V12.5115ZM19.4912 28.2346L19.4914 29.9844H22.9721L22.9719 28.2346H19.4912ZM8.99602 3.75015H12.4767V2.00031H8.99602V3.75015ZM22.9721 2.00035L22.9723 3.75019H19.4916L19.4914 2.00035H22.9721ZM28.2343 23.0038H29.9841V19.5231L28.2343 19.5233V23.0038ZM28.2343 12.5115H29.9841V8.99615H28.2343V12.5115ZM29.9841 17.7577H28.2343V14.2423H29.9841V17.7577ZM28.2343 27.3766V27.3768C28.2352 27.6085 28.1434 27.8313 27.9794 27.9952C27.8154 28.1593 27.5929 28.2508 27.3609 28.2502H24.738V30H28.2186L28.2184 29.9998C28.6826 29.9998 29.1276 29.8155 29.4557 29.4872C29.7839 29.1593 29.9682 28.7141 29.9682 28.2502V24.7694H28.2343V27.3766ZM25.6108 7.24635V10.746C25.593 11.046 25.4223 11.3159 25.159 11.4611C24.8957 11.6062 24.5763 11.6062 24.313 11.4611C24.0497 11.3159 23.8791 11.046 23.8612 10.746V9.43278L20.2192 13.0781C20.0435 13.2664 19.799 13.3754 19.5414 13.3801C19.2838 13.3845 19.0355 13.2842 18.8534 13.1022C18.6713 12.9201 18.5712 12.6716 18.5756 12.4142C18.5802 12.1566 18.6892 11.9121 18.8775 11.7364L22.5036 8.12288H21.238C20.9381 8.10502 20.6682 7.93438 20.523 7.67108C20.3779 7.40772 20.3779 7.08837 20.523 6.82506C20.6681 6.56176 20.9381 6.39112 21.238 6.37327H24.5605C24.6214 6.36688 24.683 6.36688 24.7439 6.37327V6.37321C24.9745 6.37474 25.195 6.46746 25.3575 6.6312C25.5199 6.79478 25.6108 7.01593 25.6108 7.24635ZM15.9922 14.2424H3.75028C2.78374 14.2424 2.00044 15.0259 2.00044 15.9923V28.2342C2.00044 29.0176 2.78397 29.984 3.75028 29.984H15.9922C16.9587 29.984 17.742 29.2004 17.742 28.2342V15.9923C17.742 15.2087 16.9585 14.2424 15.9922 14.2424Z" fill="#FA7D78"/>
</svg>
