<svg width="24" height="24" viewBox="0 0 24 24" fill="none" xmlns="http://www.w3.org/2000/svg">
<path fill-rule="evenodd" clip-rule="evenodd" d="M8.50974 12.1534C8.50974 12.518 8.36616 12.8757 8.11586 13.1329C7.86265 13.395 7.52504 13.5379 7.16803 13.5379C6.4278 13.5379 5.82534 12.9171 5.82534 12.1534C5.82534 11.3896 6.4278 10.7678 7.16803 10.7678C7.90728 10.7678 8.50974 11.3896 8.50974 12.1534ZM16.8113 3.88049C17.5506 3.88049 18.1521 4.50232 18.1521 5.26604C18.1521 6.02977 17.5506 6.65159 16.8113 6.65159C16.0711 6.65159 15.4696 6.02977 15.4696 5.26604C15.4696 4.50232 16.0711 3.88049 16.8113 3.88049ZM16.8113 17.328C17.5506 17.328 18.1521 17.9488 18.1521 18.7125C18.1521 19.4763 17.5506 20.0971 16.8113 20.0971C16.0711 20.0971 15.4696 19.4763 15.4696 18.7125C15.4696 17.9488 16.0711 17.328 16.8113 17.328ZM19.0757 16.4115C17.9707 15.2733 16.2195 15.1294 14.9593 16.0676L10.1736 13.1487C10.3802 12.5012 10.3792 11.8025 10.1736 11.1541L15.2048 8.06177C15.6898 8.36036 16.2438 8.51803 16.8113 8.51902H16.8181C18.2316 8.51902 19.4851 7.54046 19.8663 6.13816C20.2495 4.7339 19.6704 3.22517 18.4586 2.46933C17.2469 1.71349 15.6801 1.88397 14.6469 2.8842C13.6496 3.85192 13.3741 5.38232 13.9542 6.6506L9.13549 9.61188C7.8578 8.55942 6.00191 8.68359 4.86877 9.9154C3.71041 11.1719 3.71041 13.1398 4.86877 14.3963C6.00288 15.6291 7.8578 15.7503 9.13549 14.6988L13.8456 17.5625C13.2994 19.0456 13.8708 20.7416 15.2096 21.5506C15.7121 21.8542 16.2661 22 16.8162 22C17.7737 22 18.7167 21.5565 19.3366 20.7298C20.3126 19.4319 20.2001 17.5763 19.0757 16.4115Z" fill="#FA7D78"/>
</svg>
