<svg width="32" height="32" viewBox="0 0 32 32" fill="none" xmlns="http://www.w3.org/2000/svg">
<path fill-rule="evenodd" clip-rule="evenodd" d="M24.6424 5.17212V3.08602L24.6424 3.08606C24.6424 2.53294 24.4225 2.00207 24.0314 1.61093C23.6404 1.21978 23.1095 1 22.5563 1H3.08606C2.53294 1 2.00207 1.21985 1.61093 1.61093C1.21978 2.002 1 2.53287 1 3.08606V22.5563C1 23.1094 1.21985 23.6403 1.61093 24.0314C2.002 24.4226 2.53287 24.6424 3.08606 24.6424H5.17216V8.64895C5.17216 7.72693 5.53843 6.84251 6.19033 6.19029C6.84262 5.53843 7.72697 5.17212 8.64899 5.17212H24.6424ZM28.9139 7.35755H9.44369C8.89051 7.35755 8.35964 7.57734 7.96856 7.96848C7.57749 8.35963 7.35763 8.8905 7.35763 9.44361V28.9139C7.35763 29.467 7.57742 29.9979 7.96856 30.389C8.35971 30.7801 8.89058 30.9999 9.44369 30.9999H28.9139C29.4671 30.9999 29.998 30.7801 30.3891 30.389C30.7801 29.9978 31 29.467 31 28.9139V9.44361C31 8.89043 30.7802 8.35956 30.3891 7.96848C29.9979 7.57741 29.4671 7.35755 28.9139 7.35755ZM24.7815 16.3973C24.4127 16.3973 24.0588 16.2508 23.798 15.99C23.5373 15.7293 23.3907 15.3754 23.3907 15.0066V13.6158H20.6093V24.7417H22C22.497 24.7417 22.9561 25.0068 23.2045 25.4371C23.4528 25.8673 23.4528 26.3976 23.2045 26.8278C22.9561 27.2581 22.497 27.5232 22 27.5232H19.2209L19.2186 27.5232L19.2162 27.5232H16.4371C15.9401 27.5232 15.481 27.2581 15.2326 26.8278C14.9843 26.3975 14.9843 25.8673 15.2326 25.4371C15.481 25.0068 15.9401 24.7417 16.4371 24.7417H17.8278V13.6158H15.0464V15.0066C15.0464 15.5036 14.7812 15.9627 14.351 16.211C13.9207 16.4594 13.3905 16.4594 12.9603 16.211C12.53 15.9627 12.2649 15.5036 12.2649 15.0066V12.2251C12.2649 11.8563 12.4114 11.5024 12.6722 11.2417C12.9329 10.9809 13.2868 10.8344 13.6556 10.8344H24.7815C25.1503 10.8344 25.5042 10.9809 25.7649 11.2417C26.0257 11.5024 26.1722 11.8563 26.1722 12.2251V15.0066C26.1722 15.3754 26.0257 15.7293 25.7649 15.99C25.5042 16.2508 25.1503 16.3973 24.7815 16.3973Z" fill="#222828" fill-opacity="0.15"/>
</svg>
