<?xml version="1.0" encoding="utf-8"?>
<!-- Generator: Adobe Illustrator 26.2.1, SVG Export Plug-In . SVG Version: 6.00 Build 0)  -->
<svg version="1.1" id="Layer_1" xmlns="http://www.w3.org/2000/svg" xmlns:xlink="http://www.w3.org/1999/xlink" x="0px" y="0px"
	 viewBox="0 0 24 24" style="enable-background:new 0 0 24 24;" xml:space="preserve">
<style type="text/css">
	.st0{fill-rule:evenodd;clip-rule:evenodd;}
</style>
<path class="st0" d="M17.5,7.8h-2.8V7.3c0-0.7-0.6-1.3-1.3-1.3h-2.8C9.9,6,9.3,6.6,9.3,7.3v0.5H6.5C6.2,7.8,6,8,6,8.3
	c0,0.3,0.2,0.5,0.5,0.5h0h0.9l0.5,8c0,0.7,0.6,1.2,1.3,1.2h5.7c0.7,0,1.3-0.5,1.3-1.2l0.5-8h0.9c0.3,0,0.5-0.2,0.5-0.5v0
	C18,8,17.8,7.8,17.5,7.8z M10.3,7.3c0-0.2,0.1-0.3,0.3-0.3h2.8c0.2,0,0.3,0.1,0.3,0.3v0.5h-3.5V7.3z M15.2,16.7
	c0,0.2-0.1,0.3-0.3,0.3h0H9.2c-0.2,0-0.3-0.1-0.3-0.3v0l-0.5-8h7.3L15.2,16.7z"/>
<path class="st0" d="M10.7,10.2c-0.3,0-0.5,0.2-0.5,0.5v4.4c0,0.3,0.2,0.5,0.5,0.5c0.3,0,0.5-0.2,0.5-0.5l0-4.4
	C11.1,10.4,10.9,10.2,10.7,10.2z"/>
<path class="st0" d="M13.3,10.2c-0.3,0-0.5,0.2-0.5,0.5l0,4.4c0,0.3,0.2,0.5,0.5,0.5c0.3,0,0.5-0.2,0.5-0.5l0-4.4
	C13.8,10.4,13.6,10.2,13.3,10.2z"/>
</svg>
