<svg width="16" height="16" viewBox="0 0 16 16" fill="none" xmlns="http://www.w3.org/2000/svg">
<path fill-rule="evenodd" clip-rule="evenodd" d="M6.86532 3.38592C6.48453 3.38592 6.17662 3.6944 6.17662 4.07462V6.09759H4.15334C3.77254 6.09759 3.46463 6.40607 3.46463 6.7863C3.46463 7.16643 3.77243 7.475 4.15334 7.475H6.17662V9.49797C6.17662 9.87811 6.48442 10.1867 6.86532 10.1867C7.24612 10.1867 7.55403 9.87819 7.55403 9.49797V7.475H9.57663C9.95745 7.475 10.2654 7.16652 10.2654 6.7863C10.2654 6.40616 9.95753 6.09759 9.57663 6.09759H7.55403V4.07462C7.55403 3.69449 7.24623 3.38592 6.86532 3.38592V3.38592ZM6.86532 1.37769C9.89014 1.37769 12.3521 3.8396 12.3535 6.86561C12.3535 9.89099 9.89085 12.3521 6.86418 12.3521C3.8388 12.3521 1.37884 9.89219 1.37741 6.86818C1.37741 3.84137 3.84008 1.37826 6.86561 1.37741L6.86532 1.37769ZM6.86532 0.000371423C3.08024 0.00102856 0.00114284 3.08204 0 6.86827C0 10.6519 3.08052 13.7307 6.86418 13.7307C8.44127 13.7307 9.89211 13.1911 11.0527 12.2943L14.5581 15.7982C14.6923 15.9325 14.8687 16 15.045 16C15.2213 16 15.3976 15.9325 15.5319 15.7982C15.8012 15.5289 15.8012 15.093 15.5319 14.8243L12.0534 11.3473C13.0953 10.1434 13.7308 8.57978 13.7308 6.86675C13.7308 3.0811 10.6492 0 6.86552 0L6.86532 0.000371423Z" fill="#222828"/>
</svg>
